<svg xmlns="http://www.w3.org/2000/svg" viewBox="0 0 1000 1000" width="1000" height="1000" role="img" aria-label="Ozvučenje i rasvjeta: najčešće greške koje unište event"><rect width="1000" height="1000" fill="#090a0d"/><g opacity=".07" stroke="#fff"><path d="M0 230H1000M0 500H1000M0 770H1000M465 0V1000"/><path d="M520 720H960M540 760H940M560 800H920"/></g><g font-family="Arial,sans-serif"><text x="56" y="72" fill="#f50062" font-size="54" font-weight="900">83</text><path d="M140 30V95" stroke="#8c8d92"/><text x="163" y="55" fill="#f5f0e8" font-size="18" letter-spacing="4">SINDIKAT</text><text x="163" y="82" fill="#f5f0e8" font-size="18" letter-spacing="4">STUDIO 83</text><text x="888" y="58" fill="#f50062" text-anchor="end" font-size="17" letter-spacing="4">BLOG</text><path d="M800 72H890" stroke="#f50062" stroke-width="2"/></g><g font-family="Georgia,serif" font-weight="700"><text x="56" y="185" fill="#f7f1e8" font-size="65">Ozvučenje</text><text x="56" y="261" fill="#f7f1e8" font-size="65">i rasvjeta:</text><text x="56" y="337" fill="#f50062" font-size="67">najčešće greške</text><text x="56" y="413" fill="#f7f1e8" font-size="65">koje unište event</text></g><path d="M58 450H110" stroke="#f50062" stroke-width="4"/><text x="58" y="493" fill="#a9a7aa" font-family="Arial,sans-serif" font-size="17" letter-spacing="2">TEHNIKA KOJA PODRŽAVA DOGAĐAJ.</text><text x="58" y="521" fill="#a9a7aa" font-family="Arial,sans-serif" font-size="17" letter-spacing="2">DETALJI KOJI PRAVE RAZLIKU.</text><g transform="translate(520 150)" fill="none" stroke="#77787d"><path d="M0 30H420M40 30V80M200 30V80M360 30V80"/><rect x="15" y="78" width="50" height="58" rx="9"/><rect x="175" y="78" width="50" height="58" rx="9"/><rect x="335" y="78" width="50" height="58" rx="9"/></g><g transform="translate(520 150)" stroke="#f50062" fill="none"><circle cx="40" cy="110" r="14"/><circle cx="200" cy="110" r="14"/><circle cx="360" cy="110" r="14"/><path d="M40 125L80 300M200 125L200 300M360 125L320 300" opacity=".45" stroke-width="14"/></g><path d="M500 470c25-30 50 30 75 0s50 30 75 0 50 30 75 0 50 30 75 0 50 30 75 0" fill="none" stroke="#f50062" stroke-width="4"/><g transform="translate(670 500)"><path d="M60 0c32 0 58 26 58 58v95c0 32-26 58-58 58S2 185 2 153V58C2 26 28 0 60 0Z" fill="#17181d" stroke="#c9c4bc"/><path d="M20 70H100M20 88H100M20 106H100" stroke="#777"/><path d="M60 210V285M20 285H100" stroke="#c9c4bc" stroke-width="4"/></g><g transform="translate(800 470)" fill="none" stroke="#c9c4bc"><rect x="0" y="0" width="115" height="72" rx="8"/><rect x="0" y="82" width="115" height="72" rx="8"/><rect x="0" y="164" width="115" height="72" rx="8"/><rect x="0" y="246" width="115" height="72" rx="8"/></g><g transform="translate(520 620)" font-family="Arial,sans-serif"><rect width="260" height="265" rx="18" fill="#111217" stroke="#696a70"/><g fill="#f50062" font-size="22"><text x="20" y="46">✕</text><text x="20" y="91">✕</text><text x="20" y="136">✕</text><text x="20" y="181">✕</text><text x="20" y="226">⚠</text></g><g fill="#f7f1e8" font-size="14" font-weight="700"><text x="58" y="45">PREGLASNO</text><text x="58" y="90">LOŠ BALANS</text><text x="58" y="135">FEEDBACK</text><text x="58" y="180">SLABA RASVJETA</text><text x="58" y="225">LOŠE POZICIONIRANJE</text></g></g><g transform="translate(785 790)"><circle cx="85" cy="85" r="62" fill="#17181d" stroke="#777"/><circle cx="85" cy="85" r="33" fill="#f50062" opacity=".7"/><path d="M85 23V0M85 170v23M23 85H0M170 85h23" stroke="#f50062"/></g><text x="30" y="960" fill="none" stroke="#f50062" font-family="Arial,sans-serif" font-size="180" font-weight="900" opacity=".4">83</text></svg>