<svg xmlns="http://www.w3.org/2000/svg" viewBox="0 0 1000 1000" width="1000" height="1000" role="img" aria-label="Google Ads za uslužne firme: 10 ključnih riječi koje donose upite"><rect width="1000" height="1000" fill="#090a0d"/><g opacity=".07" stroke="#fff"><path d="M0 230H1000M0 500H1000M0 770H1000M465 0V1000"/><circle cx="800" cy="760" r="170"/></g><g font-family="Arial,sans-serif"><text x="56" y="72" fill="#f50062" font-size="54" font-weight="900">83</text><path d="M140 30V95" stroke="#8c8d92"/><text x="163" y="55" fill="#f5f0e8" font-size="18" letter-spacing="4">SINDIKAT</text><text x="163" y="82" fill="#f5f0e8" font-size="18" letter-spacing="4">STUDIO 83</text><text x="888" y="58" fill="#f50062" text-anchor="end" font-size="17" letter-spacing="4">BLOG</text><path d="M800 72H890" stroke="#f50062" stroke-width="2"/></g><g font-family="Georgia,serif" font-weight="700"><text x="56" y="180" fill="#f7f1e8" font-size="64">Google Ads</text><text x="56" y="255" fill="#f7f1e8" font-size="64">za <tspan fill="#f50062">uslužne firme:</tspan></text><text x="56" y="330" fill="#f7f1e8" font-size="64">10 ključnih</text><text x="56" y="405" fill="#f7f1e8" font-size="64">riječi koje</text><text x="56" y="480" fill="#f7f1e8" font-size="64">donose <tspan fill="#f50062">upite</tspan></text></g><path d="M58 517H110" stroke="#f50062" stroke-width="4"/><text x="58" y="559" fill="#a9a7aa" font-family="Arial,sans-serif" font-size="17" letter-spacing="2">PRAVE RIJEČI. PRAVI LJUDI.</text><text x="58" y="587" fill="#a9a7aa" font-family="Arial,sans-serif" font-size="17" letter-spacing="2">VIŠE UPITA.</text><g transform="translate(525 150)" font-family="Arial,sans-serif"><rect width="400" height="70" rx="34" fill="#111217" stroke="#6c6d72"/><circle cx="40" cy="35" r="13" fill="none" stroke="#f50062" stroke-width="3"/><path d="M49 44l12 12" stroke="#f50062" stroke-width="3"/><text x="78" y="43" fill="#f7f1e8" font-size="18">uslužne firme</text><g transform="translate(0 95)"><g fill="#111217" stroke="#62636a"><rect width="310" height="58" rx="12"/><rect y="70" width="310" height="58" rx="12"/><rect y="140" width="310" height="58" rx="12"/><rect y="210" width="310" height="58" rx="12"/><rect y="280" width="310" height="58" rx="12"/></g><g fill="none" stroke="#f50062" stroke-width="2"><circle cx="28" cy="29" r="10"/><circle cx="28" cy="99" r="10"/><circle cx="28" cy="169" r="10"/><circle cx="28" cy="239" r="10"/><circle cx="28" cy="309" r="10"/><path d="M23 29l4 4 7-9M23 99l4 4 7-9M23 169l4 4 7-9M23 239l4 4 7-9M23 309l4 4 7-9"/></g><g fill="#f7f1e8" font-size="13"><text x="50" y="34">vodoinstalater hitne intervencije</text><text x="50" y="104">čišćenje stanova cijena</text><text x="50" y="174">adaptacija stana ključ u ruke</text><text x="50" y="244">servis bojlera Podgorica</text><text x="50" y="314">knjigovodstvene usluge online</text></g><rect y="350" width="310" height="58" rx="12" fill="#111217" stroke="#62636a"/><text x="30" y="385" fill="#a9a7aa" font-size="13">+ još 5 ključnih riječi</text></g><g transform="translate(315 260)"><circle cx="70" cy="70" r="62" fill="none" stroke="#f50062"/><circle cx="70" cy="70" r="40" fill="none" stroke="#f50062"/><circle cx="70" cy="70" r="14" fill="#f50062"/><path d="M70 132V185" stroke="#777" stroke-dasharray="5 7"/><rect x="5" y="185" width="130" height="70" rx="14" fill="#111217" stroke="#f50062"/><text x="70" y="214" text-anchor="middle" fill="#f50062" font-size="13" font-weight="700">UPIT / KONTAKT</text><circle cx="33" cy="238" r="10" fill="#f50062"/><path d="M52 232h58M52 244h40" stroke="#777"/></g></g><g transform="translate(555 760)"><path d="M0 165C80 95 120 130 180 85S290 80 350 15" fill="none" stroke="#f50062" stroke-width="4"/><g fill="#d7d3cb"><circle cx="50" cy="115" r="8"/><circle cx="130" cy="130" r="8"/><circle cx="220" cy="80" r="8"/><circle cx="325" cy="38" r="8"/></g><path d="M250 90c-36 0-60 26-60 58 0 45 60 108 60 108s60-63 60-108c0-32-24-58-60-58Z" fill="#f50062"/><circle cx="250" cy="148" r="18" fill="#111217"/></g><text x="30" y="955" fill="none" stroke="#f50062" font-family="Arial,sans-serif" font-size="180" font-weight="900" opacity=".4">83</text></svg>